<svg t="1578224234894" class="icon" viewBox="0 0 1093 1024" version="1.1" xmlns="http://www.w3.org/2000/svg" p-id="5440" width="128" height="128"><path d="M184.087 585.076c2.095-73.076-28.16-265.774 91.23-404.712C381.904 56.553 584.377 37.702 742.632 121.018 978.385 245.062 937.89 524.102 812.45 702.836a700.51 700.51 0 0 1-618.59 296.03c-133.817-10.008-154.53-121.95-83.083-180.83s71.447-143.127 73.31-232.96z" fill="#F9B630" p-id="5441"></path><path d="M684.218 99.607s55.855-54.69 155.927-25.367 191.535 191.302 247.622 240.873a442.182 442.182 0 0 1-168.494-39.098C793.6 218.53 684.218 99.607 684.218 99.607z" fill="#73D36E" p-id="5442"></path><path d="M672.984 167.617a31.418 23.505 23.5 1 0 18.746-43.112 31.418 23.505 23.5 1 0-18.746 43.112z" fill="#604D42" p-id="5443"></path><path d="M259.724 318.836a320.698 320.698 0 0 0-21.877 98.677c-3.956 55.622 1.164 91.927 6.051 89.367s7.215-46.545 16.99-91.695a712.61 712.61 0 0 1 24.668-91.461c14.197-37.237-14.196-27.928-25.832-4.888z m43.985-75.403a20.48 20.48 0 0 0-22.109 12.102 17.455 17.455 0 0 0 6.284 22.109c8.378 3.956 15.36-2.328 19.781-11.87s4.655-18.85-3.956-22.341z" fill="#FFFFFF" p-id="5444"></path><path d="M195.724 965.353q-24.902 0-49.804-1.862c-67.258-4.887-114.502-35.142-129.63-82.618a111.71 111.71 0 0 1 40.03-118.691c65.862-54.458 67.258-128.233 69.818-213.877v-51.2c-4.654-87.738-9.774-250.414 93.324-371.2 79.593-93.09 215.97-133.12 355.84-106.123a11.636 11.636 0 0 1 9.309 13.73 11.87 11.87 0 0 1-13.731 9.31c-131.724-25.6-259.724 12.102-333.73 98.21-97.514 114.968-92.626 264.844-89.368 354.91v52.596c-1.862 87.506-3.491 170.357-77.498 231.331a87.505 87.505 0 0 0-32.582 93.091c12.102 38.167 51.898 62.37 109.149 66.56a659.55 659.55 0 0 0 206.196-17.455 11.636 11.636 0 1 1 5.586 23.273 687.01 687.01 0 0 1-162.91 20.015z m195.723-28.858a11.636 11.636 0 0 1-3.258-23.273c16.756-5.12 33.513-10.706 50.036-17.222a11.636 11.636 0 0 1 8.379 21.644c-16.99 6.516-34.444 12.567-51.666 17.687z m99.84-38.633a11.636 11.636 0 0 1-4.887-23.273l9.542-4.654a11.636 11.636 0 0 1 10.473 20.712l-10.008 4.888a11.636 11.636 0 0 1-5.12 2.327z m64.233-34.91a11.636 11.636 0 0 1-6.05-21.643 693.527 693.527 0 0 0 206.66-193.396c74.24-105.193 109.848-232.728 95.186-339.084a11.636 11.636 0 0 1 23.273-3.025c15.36 112.64-21.644 245.527-99.142 355.607a716.335 716.335 0 0 1-213.876 199.68 11.636 11.636 0 0 1-6.051 1.862z m510.836-572.043a445.44 445.44 0 0 1-172.683-42.589A867.375 867.375 0 0 1 657.222 65.63a11.636 11.636 0 0 1 0-16.292c3.025-2.793 64.233-57.949 168.494-26.065 71.215 22.109 135.448 105.89 186.182 173.149a626.735 626.735 0 0 0 61.673 73.774 11.636 11.636 0 0 1-7.913 20.248zM683.055 58.182a840.378 840.378 0 0 0 220.392 167.796 442.182 442.182 0 0 0 133.353 38.167c-12.8-13.963-26.996-31.418-42.59-53.061-49.57-64.699-111.243-145.222-175.475-164.539a156.858 156.858 0 0 0-135.68 12.8z" fill="#604D42" p-id="5445"></path></svg>