<?xml version="1.0" standalone="no"?><!DOCTYPE svg PUBLIC "-//W3C//DTD SVG 1.1//EN" "http://www.w3.org/Graphics/SVG/1.1/DTD/svg11.dtd"><svg t="1578015579519" class="icon" viewBox="0 0 1024 1024" version="1.1" xmlns="http://www.w3.org/2000/svg" p-id="2035" xmlns:xlink="http://www.w3.org/1999/xlink" width="81" height="81"><defs><style type="text/css"></style></defs><path d="M998.13367 306.319251c-151.03679-180.177505-361.933642-264.783707-555.294867-224.720558-6.271867-32.852635-19.668915-62.036015-47.444325-78.59033a21.375546 21.375546 0 0 0-21.844869 36.692553c34.687263 20.650228 32.596641 94.333995 31.18867 143.100959-0.29866 10.581108-0.511989 19.796913-0.469323 28.372731-106.323074-8.831812-198.566447 19.11426-267.300987 82.728909C55.903025 368.909921 13.919918 487.776728 21.813083 619.997918c2.21862 37.460537 8.703815 82.942237 21.674206 152.018103 7.509174 40.020483 17.236967 99.112561 20.991554 153.298076 1.962625 28.244733 15.189011 54.057518 37.204543 72.659789a111.186971 111.186971 0 0 0 82.216919 25.514125c431.308168-42.3671 477.856512-356.856417 477.856513-490.101585 0-161.873894-109.864332-291.321809-214.736771-316.451943a640.839715 640.839715 0 0 1 0.383992-32.980632l0.085332-4.266576c107.261721 132.647848 304.121537 143.570282 427.937573 150.43947 42.708426 2.389283 79.614308 4.437239 100.435199 10.410445a21.418212 21.418212 0 0 0 22.271527-34.217939z m-379.042612 227.067175c0 151.03679-57.086787 410.103285-439.329331 447.649154a68.393213 68.393213 0 0 1-50.51626-15.658334 61.566692 61.566692 0 0 1-22.186195-43.049752c-3.92525-56.190806-13.951704-117.03218-21.674206-158.204638-8.362489-44.671051-18.303611-101.672506-20.991554-146.684883-7.082516-119.421462 29.908698-225.915199 101.544508-292.217791 52.393553-48.510969 121.042761-73.427773 200.870399-73.427773 18.51694 0 37.673866 1.365304 57.385447 4.095913h0.170663c92.115376 11.946413 194.726529 128.850595 194.726529 277.498104z m258.682503-245.797444c-133.458497-7.381176-331.854281-18.388943-418.849766-166.055138 159.868603-30.122027 332.750262 32.980632 467.147406 169.041741-14.634356-1.10931-30.804679-2.005291-48.29764-2.986603zM325.422631 882.776334a21.33288 21.33288 0 0 0 27.77541 11.647753c53.758858-21.930201 98.472574-52.478885 132.989174-90.792737 59.902727-66.473254 90.238082-157.393989 90.238083-270.28759a21.33288 21.33288 0 0 0-42.66576 0c0 102.013832-26.6661 183.334771-79.272983 241.744196-30.164692 33.492622-69.63052 60.37205-117.373505 79.870303a21.33288 21.33288 0 0 0-11.690419 27.818075z" p-id="2036"></path></svg>